<mxfile host="app.diagrams.net" modified="2022-10-06T04:37:33.562Z" agent="5.0 (Windows NT 10.0; Win64; x64) AppleWebKit/537.36 (KHTML, like Gecko) Chrome/106.0.0.0 Safari/537.36" etag="fYih6fALhdWDIjIBJEIy" version="20.4.0" type="github">
  <diagram id="2odZnuMY4oRKa1mMyv2w" name="PÃ¡gina-1">
    <mxGraphModel dx="2307" dy="1216" grid="1" gridSize="10" guides="1" tooltips="1" connect="1" arrows="1" fold="1" page="1" pageScale="1" pageWidth="827" pageHeight="1169" math="0" shadow="0">
      <root>
        <mxCell id="0" />
        <mxCell id="1" parent="0" />
        <mxCell id="gWNxO_880dpKZQ9_Zpkx-21" value="" style="rounded=0;whiteSpace=wrap;html=1;" vertex="1" parent="1">
          <mxGeometry x="240" y="18" width="1020" height="462" as="geometry" />
        </mxCell>
        <mxCell id="gWNxO_880dpKZQ9_Zpkx-51" style="edgeStyle=orthogonalEdgeStyle;rounded=0;orthogonalLoop=1;jettySize=auto;html=1;exitX=1;exitY=0.5;exitDx=0;exitDy=0;entryX=0.5;entryY=0;entryDx=0;entryDy=0;fontSize=24;" edge="1" parent="1" source="gWNxO_880dpKZQ9_Zpkx-42" target="gWNxO_880dpKZQ9_Zpkx-29">
          <mxGeometry relative="1" as="geometry" />
        </mxCell>
        <mxCell id="gWNxO_880dpKZQ9_Zpkx-42" value="" style="rounded=0;whiteSpace=wrap;html=1;fontSize=24;" vertex="1" parent="1">
          <mxGeometry x="470" y="22.5" width="430" height="285" as="geometry" />
        </mxCell>
        <mxCell id="gWNxO_880dpKZQ9_Zpkx-46" value="" style="rounded=0;whiteSpace=wrap;html=1;fontSize=24;" vertex="1" parent="1">
          <mxGeometry x="765" y="121" width="110" height="156" as="geometry" />
        </mxCell>
        <mxCell id="gWNxO_880dpKZQ9_Zpkx-45" value="" style="rounded=0;whiteSpace=wrap;html=1;fontSize=24;" vertex="1" parent="1">
          <mxGeometry x="635" y="121" width="110" height="156" as="geometry" />
        </mxCell>
        <mxCell id="gWNxO_880dpKZQ9_Zpkx-44" value="" style="rounded=0;whiteSpace=wrap;html=1;fontSize=24;" vertex="1" parent="1">
          <mxGeometry x="500" y="121" width="110" height="156" as="geometry" />
        </mxCell>
        <mxCell id="gWNxO_880dpKZQ9_Zpkx-29" value="" style="rounded=0;whiteSpace=wrap;html=1;fontSize=24;" vertex="1" parent="1">
          <mxGeometry x="1010" y="200" width="240" height="270" as="geometry" />
        </mxCell>
        <mxCell id="gWNxO_880dpKZQ9_Zpkx-24" value="" style="rounded=1;whiteSpace=wrap;html=1;" vertex="1" parent="1">
          <mxGeometry x="1080" y="290" width="140" height="140" as="geometry" />
        </mxCell>
        <mxCell id="gWNxO_880dpKZQ9_Zpkx-18" style="edgeStyle=orthogonalEdgeStyle;rounded=0;orthogonalLoop=1;jettySize=auto;html=1;exitX=1;exitY=0.5;exitDx=0;exitDy=0;entryX=0;entryY=0.5;entryDx=0;entryDy=0;" edge="1" parent="1" source="gWNxO_880dpKZQ9_Zpkx-4" target="gWNxO_880dpKZQ9_Zpkx-13">
          <mxGeometry relative="1" as="geometry" />
        </mxCell>
        <mxCell id="gWNxO_880dpKZQ9_Zpkx-4" value="" style="rounded=0;whiteSpace=wrap;html=1;" vertex="1" parent="1">
          <mxGeometry x="30" y="18" width="150" height="252" as="geometry" />
        </mxCell>
        <mxCell id="gWNxO_880dpKZQ9_Zpkx-1" value="" style="shape=mxgraph.signs.tech.computer;html=1;pointerEvents=1;fillColor=#000000;strokeColor=none;verticalLabelPosition=bottom;verticalAlign=top;align=center;" vertex="1" parent="1">
          <mxGeometry x="70" y="60" width="58" height="68" as="geometry" />
        </mxCell>
        <mxCell id="gWNxO_880dpKZQ9_Zpkx-2" value="" style="shape=image;html=1;verticalAlign=top;verticalLabelPosition=bottom;labelBackgroundColor=#ffffff;imageAspect=0;aspect=fixed;image=https://cdn1.iconfinder.com/data/icons/communication-icons-10/750/Untitled-1-07-128.png" vertex="1" parent="1">
          <mxGeometry x="50" y="150" width="98" height="98" as="geometry" />
        </mxCell>
        <mxCell id="gWNxO_880dpKZQ9_Zpkx-3" value="Clientes" style="text;html=1;align=center;verticalAlign=middle;resizable=0;points=[];autosize=1;strokeColor=none;fillColor=none;" vertex="1" parent="1">
          <mxGeometry x="64" y="30" width="70" height="30" as="geometry" />
        </mxCell>
        <mxCell id="gWNxO_880dpKZQ9_Zpkx-48" style="edgeStyle=orthogonalEdgeStyle;rounded=0;orthogonalLoop=1;jettySize=auto;html=1;exitX=1;exitY=0.5;exitDx=0;exitDy=0;entryX=0;entryY=0.5;entryDx=0;entryDy=0;fontSize=24;" edge="1" parent="1" source="gWNxO_880dpKZQ9_Zpkx-13" target="gWNxO_880dpKZQ9_Zpkx-42">
          <mxGeometry relative="1" as="geometry" />
        </mxCell>
        <mxCell id="gWNxO_880dpKZQ9_Zpkx-13" value="" style="rounded=0;whiteSpace=wrap;html=1;" vertex="1" parent="1">
          <mxGeometry x="264" y="30" width="126" height="170" as="geometry" />
        </mxCell>
        <mxCell id="gWNxO_880dpKZQ9_Zpkx-6" value="" style="whiteSpace=wrap;html=1;aspect=fixed;" vertex="1" parent="1">
          <mxGeometry x="284" y="74" width="86" height="86" as="geometry" />
        </mxCell>
        <mxCell id="gWNxO_880dpKZQ9_Zpkx-5" value="" style="shape=image;html=1;verticalAlign=top;verticalLabelPosition=bottom;labelBackgroundColor=#ffffff;imageAspect=0;aspect=fixed;image=https://cdn1.iconfinder.com/data/icons/ionicons-fill-vol-2/512/logo-vue-128.png" vertex="1" parent="1">
          <mxGeometry x="300" y="110" width="48" height="48" as="geometry" />
        </mxCell>
        <mxCell id="gWNxO_880dpKZQ9_Zpkx-7" value="&lt;b&gt;FrontEnd&lt;/b&gt;&lt;br&gt;VueJS" style="text;html=1;align=center;verticalAlign=middle;resizable=0;points=[];autosize=1;strokeColor=none;fillColor=none;" vertex="1" parent="1">
          <mxGeometry x="284" y="74" width="80" height="40" as="geometry" />
        </mxCell>
        <mxCell id="gWNxO_880dpKZQ9_Zpkx-8" value="" style="sketch=0;aspect=fixed;html=1;points=[];align=center;image;fontSize=12;image=img/lib/mscae/Docker.svg;" vertex="1" parent="1">
          <mxGeometry x="270" y="140" width="50" height="41" as="geometry" />
        </mxCell>
        <mxCell id="gWNxO_880dpKZQ9_Zpkx-14" value="" style="editableCssRules=.*;shape=image;verticalLabelPosition=bottom;labelBackgroundColor=#ffffff;verticalAlign=top;aspect=fixed;imageAspect=0;image=data:image/svg+xml,PHN2ZyB4bWxucz0iaHR0cDovL3d3dy53My5vcmcvMjAwMC9zdmciIHhtbG5zOnY9Imh0dHBzOi8vdmVjdGEuaW8vbmFubyIgd2lkdGg9IjM2NS40NjQ5OTY3NzA0MjQ5MyIgaGVpZ2h0PSIzNzkuMjIyOTk0NDYzNTc3OTUiIHZpZXdCb3g9IjAgMCA5Ni42OTU5OTkxNDU1MDc4MSAxMDAuMzM1OTk4NTM1MTU2MjUiPiYjeGE7PHN0eWxlIHR5cGU9InRleHQvY3NzIj4mI3hhOwkuc3Qwe2ZpbGw6IzQyODVmNDt9JiN4YTsJLnN0MXtmaWxsOiNhZWNiZmE7fSYjeGE7PC9zdHlsZT4mI3hhOwk8cGF0aCBjbGFzcz0ic3QwIiBkPSJNMjkuNzk0IDEwMC4zMzZMNDYuOTIgNTAuMTY4aDQ5Ljc3NnpNMCA5OS42NzFsMTIuOTc2LTQ5LjUwMkgyOS4yMkwxNi44OTcgOTIuMDU0eiIvPiYjeGE7CTxwYXRoIGNsYXNzPSJzdDEiIGQ9Ik0yOS43OTQgMEw0Ni45MiA1MC4xNjhoNDkuNzc2ek0wIC42NjZsMTIuOTc2IDQ5LjUwMkgyOS4yMkwxNi44OTcgOC4yODN6Ii8+JiN4YTs8L3N2Zz4=;" vertex="1" parent="1">
          <mxGeometry x="360" y="170" width="20" height="20" as="geometry" />
        </mxCell>
        <mxCell id="gWNxO_880dpKZQ9_Zpkx-15" style="edgeStyle=orthogonalEdgeStyle;rounded=0;orthogonalLoop=1;jettySize=auto;html=1;exitX=0.5;exitY=1;exitDx=0;exitDy=0;" edge="1" parent="1" source="gWNxO_880dpKZQ9_Zpkx-13" target="gWNxO_880dpKZQ9_Zpkx-13">
          <mxGeometry relative="1" as="geometry" />
        </mxCell>
        <mxCell id="gWNxO_880dpKZQ9_Zpkx-16" value="Cloud Run" style="text;html=1;align=center;verticalAlign=middle;resizable=0;points=[];autosize=1;strokeColor=none;fillColor=none;" vertex="1" parent="1">
          <mxGeometry x="287" y="40" width="80" height="30" as="geometry" />
        </mxCell>
        <mxCell id="gWNxO_880dpKZQ9_Zpkx-19" value="HTTP" style="text;html=1;align=center;verticalAlign=middle;resizable=0;points=[];autosize=1;strokeColor=none;fillColor=none;" vertex="1" parent="1">
          <mxGeometry x="190" y="84" width="50" height="30" as="geometry" />
        </mxCell>
        <mxCell id="gWNxO_880dpKZQ9_Zpkx-22" value="" style="sketch=0;outlineConnect=0;fontColor=#232F3E;gradientColor=none;fillColor=#2E27AD;strokeColor=none;dashed=0;verticalLabelPosition=bottom;verticalAlign=top;align=center;html=1;fontSize=12;fontStyle=0;aspect=fixed;pointerEvents=1;shape=mxgraph.aws4.rds_postgresql_instance;" vertex="1" parent="1">
          <mxGeometry x="1130" y="321" width="78" height="78" as="geometry" />
        </mxCell>
        <mxCell id="gWNxO_880dpKZQ9_Zpkx-25" value="" style="editableCssRules=.*;shape=image;verticalLabelPosition=bottom;labelBackgroundColor=#ffffff;verticalAlign=top;aspect=fixed;imageAspect=0;image=data:image/svg+xml,PHN2ZyB4bWxucz0iaHR0cDovL3d3dy53My5vcmcvMjAwMC9zdmciIHhtbG5zOnY9Imh0dHBzOi8vdmVjdGEuaW8vbmFubyIgd2lkdGg9IjE0LjY1OTk5OTg0NzQxMjExIiBoZWlnaHQ9IjIwIiB2aWV3Qm94PSIwIDAgMTQuNjU5OTk5ODQ3NDEyMTEgMjAiPiYjeGE7CTxzdHlsZSB0eXBlPSJ0ZXh0L2NzcyI+JiN4YTsJLnN0MHtmaWxsOiM0Mjg1ZjQ7fSYjeGE7CS5zdDF7ZmlsbDojNjY5ZGY2O30mI3hhOwkuc3Qye2ZpbGw6I2FlY2JmYTt9JiN4YTsJPC9zdHlsZT4mI3hhOwk8c3R5bGU+JiN4YTsJCS5Ee2ZpbGwtcnVsZTpldmVub2RkfSYjeGE7CTwvc3R5bGU+JiN4YTsJPHBhdGggZD0iTTcuMzMgMTUuMzV2LTMuMDFMMCA4LjQ0djMuMDF6bTAgNC42NXYtMy4wMUwwIDEzLjA5djMuMDF6IiBjbGFzcz0ic3QyIEQiLz4mI3hhOwk8cGF0aCBkPSJNMTQuNjYgOC40NGwtNy4zMyAzLjl2My4wMWw3LjMzLTMuOXptMCA0LjY1bC03LjMzIDMuOVYyMGw3LjMzLTMuOXoiIGNsYXNzPSJzdDEgRCIvPiYjeGE7CTxwYXRoIGQ9Ik03LjMzIDB2My4wMWw3LjMzIDMuOVYzLjl6IiBjbGFzcz0ic3QwIEQiLz4mI3hhOwk8cGF0aCBkPSJNMCA2LjkxbDcuMzMtMy45VjBMMCAzLjl6IiBjbGFzcz0iRCBzdDEiLz4mI3hhOwk8cGF0aCBkPSJNNy4zMyAxMC43OVY3Ljc3TDAgMy44N3YzLjAyeiIgY2xhc3M9IkQgc3QyIi8+JiN4YTsJPHBhdGggZD0iTTE0LjY2IDMuODdsLTcuMzMgMy45djMuMDJsNy4zMy0zLjl6IiBjbGFzcz0iRCBzdDEiLz4mI3hhOzwvc3ZnPg==;" vertex="1" parent="1">
          <mxGeometry x="1090" y="380" width="30" height="40" as="geometry" />
        </mxCell>
        <mxCell id="gWNxO_880dpKZQ9_Zpkx-26" value="&lt;b&gt;Cloud SQL&lt;/b&gt;" style="text;html=1;align=center;verticalAlign=middle;resizable=0;points=[];autosize=1;strokeColor=none;fillColor=none;" vertex="1" parent="1">
          <mxGeometry x="1105" y="290" width="90" height="30" as="geometry" />
        </mxCell>
        <mxCell id="gWNxO_880dpKZQ9_Zpkx-27" value="&lt;font style=&quot;font-size: 24px;&quot;&gt;&lt;b&gt;Virtual Network&lt;/b&gt;&lt;/font&gt;" style="text;html=1;align=center;verticalAlign=middle;resizable=0;points=[];autosize=1;strokeColor=none;fillColor=none;" vertex="1" parent="1">
          <mxGeometry x="290" y="430" width="200" height="40" as="geometry" />
        </mxCell>
        <mxCell id="gWNxO_880dpKZQ9_Zpkx-28" value="" style="ellipse;shape=cloud;whiteSpace=wrap;html=1;fontSize=24;" vertex="1" parent="1">
          <mxGeometry x="260" y="440" width="40" height="20" as="geometry" />
        </mxCell>
        <mxCell id="gWNxO_880dpKZQ9_Zpkx-30" value="" style="html=1;strokeWidth=1;shadow=0;dashed=0;shape=mxgraph.ios7.misc.vpn;fillColor=#007AFF;strokeColor=none;buttonText=;strokeColor2=#222222;fontColor=#222222;fontSize=8;verticalLabelPosition=bottom;verticalAlign=top;align=center;sketch=0;" vertex="1" parent="1">
          <mxGeometry x="1020" y="410" width="50" height="45" as="geometry" />
        </mxCell>
        <mxCell id="gWNxO_880dpKZQ9_Zpkx-31" value="Red Virtual Privada" style="text;html=1;align=center;verticalAlign=middle;resizable=0;points=[];autosize=1;strokeColor=none;fillColor=none;fontSize=24;" vertex="1" parent="1">
          <mxGeometry x="1015" y="220" width="230" height="40" as="geometry" />
        </mxCell>
        <mxCell id="gWNxO_880dpKZQ9_Zpkx-35" value="" style="outlineConnect=0;dashed=0;verticalLabelPosition=bottom;verticalAlign=top;align=center;html=1;shape=mxgraph.aws3.android;fillColor=#8CC64F;gradientColor=none;fontSize=24;" vertex="1" parent="1">
          <mxGeometry x="530" y="210.29" width="43.5" height="49.71" as="geometry" />
        </mxCell>
        <mxCell id="gWNxO_880dpKZQ9_Zpkx-36" value="" style="outlineConnect=0;dashed=0;verticalLabelPosition=bottom;verticalAlign=top;align=center;html=1;shape=mxgraph.aws3.android;fillColor=#FFD44F;gradientColor=none;fontSize=24;" vertex="1" parent="1">
          <mxGeometry x="650" y="214" width="50" height="50" as="geometry" />
        </mxCell>
        <mxCell id="gWNxO_880dpKZQ9_Zpkx-37" value="" style="outlineConnect=0;dashed=0;verticalLabelPosition=bottom;verticalAlign=top;align=center;html=1;shape=mxgraph.aws3.android;fillColor=#EE472A;gradientColor=none;fontSize=24;" vertex="1" parent="1">
          <mxGeometry x="790" y="214" width="45.5" height="52" as="geometry" />
        </mxCell>
        <mxCell id="gWNxO_880dpKZQ9_Zpkx-38" value="Micro -&lt;br&gt;service 1" style="text;html=1;align=center;verticalAlign=middle;resizable=0;points=[];autosize=1;strokeColor=none;fillColor=none;fontSize=24;" vertex="1" parent="1">
          <mxGeometry x="491.75" y="128" width="120" height="70" as="geometry" />
        </mxCell>
        <mxCell id="gWNxO_880dpKZQ9_Zpkx-39" value="Micro -&lt;br&gt;service 2" style="text;html=1;align=center;verticalAlign=middle;resizable=0;points=[];autosize=1;strokeColor=none;fillColor=none;fontSize=24;" vertex="1" parent="1">
          <mxGeometry x="630" y="130" width="120" height="70" as="geometry" />
        </mxCell>
        <mxCell id="gWNxO_880dpKZQ9_Zpkx-40" value="Micro -&lt;br&gt;service X" style="text;html=1;align=center;verticalAlign=middle;resizable=0;points=[];autosize=1;strokeColor=none;fillColor=none;fontSize=24;" vertex="1" parent="1">
          <mxGeometry x="760" y="130" width="120" height="70" as="geometry" />
        </mxCell>
        <mxCell id="gWNxO_880dpKZQ9_Zpkx-49" value="" style="editableCssRules=.*;shape=image;verticalLabelPosition=bottom;labelBackgroundColor=#ffffff;verticalAlign=top;aspect=fixed;imageAspect=0;image=data:image/svg+xml,PHN2ZyB4bWxucz0iaHR0cDovL3d3dy53My5vcmcvMjAwMC9zdmciIHhtbG5zOnY9Imh0dHBzOi8vdmVjdGEuaW8vbmFubyIgd2lkdGg9IjMyOS45MjU5OTcyMzE3OTM4IiBoZWlnaHQ9IjM3OC4yODQ5OTAzMTEyNzg4IiB2aWV3Qm94PSIwIDAgODcuMjkyOTk5MjY3NTc4MTIgMTAwLjA4Nzk5NzQzNjUyMzQ0Ij4mI3hhOzxzdHlsZSB0eXBlPSJ0ZXh0L2NzcyI+JiN4YTsJLnN0MHtmaWxsOiNhZWNiZmE7fSYjeGE7CS5zdDF7ZmlsbDojNjY5ZGY2O30mI3hhOwkuc3Qye2ZpbGw6IzQyODVmNDt9JiN4YTs8L3N0eWxlPiYjeGE7CTxwYXRoIGNsYXNzPSJzdDAiIGQ9Ik00My43NTEgMEwwIDI1LjQ2NXYyLjU4OCA0Ni45Mmw0My43NTIgMjUuMTE1IDQzLjU0MS0yNS4xMjFWMjUuNDczem0yLjQzOCAxMS44NTNsMzIuMTAzIDE4Ljc4MlY2OS43N0w0My43MzkgODkuNzA1IDkgNjkuNzYyVjMwLjY0MWwzMi4xOS0xOC43MzZ2MTQuMTU0TDI0LjUwMyAzNi4xNTNsMTkuMTcyIDExLjUwMiAxOC44ODYtMTEuNTU0LTE2LjM3Mi0xMC4wMjR6Ii8+JiN4YTsJPHBhdGggY2xhc3M9InN0MSIgZD0iTTIyLjAyNSA0MC40OTZsLjE2NiAxOS4xNDMtMTMuMjQ3IDcuMzN2Mi43NDJsMi42MzcgMS41MTQgMTIuNjQ4LTYuOTk5TDQxLjE5IDc0LjgyOFY1MS45OTN6Ii8+JiN4YTsJPHBhdGggY2xhc3M9InN0MiIgZD0iTTY1LjM0NCA0MC4yNkw0Ni4xODkgNTEuOTc5djIyLjg0N0w2My4wODggNjQuMjVsMTIuNTM5IDYuOTc0IDIuNjA5LTEuNTA1di0yLjc2NWwtMTIuNzg0LTcuMTEyeiIvPiYjeGE7PC9zdmc+;fontSize=24;" vertex="1" parent="1">
          <mxGeometry x="480" y="33.78" width="59.6" height="66.22" as="geometry" />
        </mxCell>
        <mxCell id="gWNxO_880dpKZQ9_Zpkx-50" value="Google Kubernetes Enginee" style="text;html=1;align=center;verticalAlign=middle;resizable=0;points=[];autosize=1;strokeColor=none;fillColor=none;fontSize=24;" vertex="1" parent="1">
          <mxGeometry x="540" y="34" width="330" height="40" as="geometry" />
        </mxCell>
      </root>
    </mxGraphModel>
  </diagram>
</mxfile>
